<svg width="25" height="24" viewBox="0 0 25 24" fill="none" xmlns="http://www.w3.org/2000/svg">
<g clip-path="url(#clip0_1014_2335)">
<path d="M7.5 13C9.16 13 10.5 11.66 10.5 10C10.5 8.34 9.16 7 7.5 7C5.84 7 4.5 8.34 4.5 10C4.5 11.66 5.84 13 7.5 13ZM19.5 7H13.5C12.4 7 11.5 7.9 11.5 9V14H3.5V6C3.5 5.45 3.05 5 2.5 5C1.95 5 1.5 5.45 1.5 6V19C1.5 19.55 1.95 20 2.5 20C3.05 20 3.5 19.55 3.5 19V17H21.5V19C21.5 19.55 21.95 20 22.5 20C23.05 20 23.5 19.55 23.5 19V11C23.5 8.79 21.71 7 19.5 7Z" fill="#222430"/>
</g>
<defs>
<clipPath id="clip0_1014_2335">
<rect width="24" height="24" fill="white" transform="translate(0.5)"/>
</clipPath>
</defs>
</svg>
